<svg width="282" height="231" viewBox="0 0 282 231" fill="none" xmlns="http://www.w3.org/2000/svg">
<g filter="url(#filter0_f_203_505)">
<ellipse cx="137.724" cy="187.111" rx="110.607" ry="21.3375" fill="#69C5EB"/>
</g>
<path d="M138.939 229.701C202.286 229.701 253.64 178.347 253.64 115C253.64 51.6522 202.286 0.298828 138.939 0.298828C75.5912 0.298828 24.2378 51.6522 24.2378 115C24.2378 178.347 75.5912 229.701 138.939 229.701Z" fill="#F9F9F9"/>
<g filter="url(#filter1_d_203_505)">
<path d="M235.02 77.9228L136.729 146.518L38.4385 77.9228L128.416 15.1042C130.856 13.4035 133.759 12.4917 136.733 12.4917C139.708 12.4917 142.611 13.4035 145.051 15.1042L162.999 27.6516L167.698 30.9149L215.016 63.9559L220.001 67.4558L235.02 77.9228Z" fill="#E0F6FF"/>
</g>
<path d="M120.747 135.365L38.4385 193.893V77.9229L120.747 135.365Z" fill="#69C5EB"/>
<path d="M152.719 135.365L235.028 193.893V77.9229L152.719 135.365Z" fill="#69C5EB"/>
<path d="M38.4385 193.893L128.31 129.997C130.77 128.246 133.714 127.305 136.733 127.305C139.753 127.305 142.697 128.246 145.157 129.997L235.02 193.893H38.4385Z" fill="#26B2EB"/>
<path d="M48.8239 56.9087C33.7553 63.9574 17.5628 68.2965 0.988754 69.7269C3.22826 74.9328 19.1406 100.992 66.3765 122.463C67.6534 122.66 97.1501 108.938 113.337 99.5281C112.787 100.314 63.0565 82.0148 48.8239 56.9087Z" fill="url(#paint0_linear_203_505)"/>
<path d="M49.99 69.8648C49.2966 69.3837 48.4183 69.2538 47.6153 69.5136L21.2513 78.0431C20.3069 78.3487 19.9704 79.512 20.6059 80.2745C21.1176 80.8886 21.9552 81.1231 22.7114 80.8641L49.748 71.6036C50.5109 71.3423 50.6526 70.3245 49.99 69.8648Z" fill="#69C5EB"/>
<path d="M49.5329 80.37C48.8642 79.7421 47.9044 79.5329 47.0351 79.8255L28.7837 85.9679C27.9789 86.2388 27.6947 87.2317 28.2344 87.8873C28.6753 88.4229 29.4019 88.6295 30.0586 88.4059L49.2051 81.8867C49.8515 81.6666 50.0307 80.8374 49.5329 80.37Z" fill="#69C5EB"/>
<path d="M59.3291 85.5719C58.6313 85.0131 57.6928 84.8585 56.8526 85.1638L35.8292 92.8048C35.0041 93.1047 34.7558 94.1514 35.3583 94.79C35.8192 95.2785 36.527 95.4453 37.1576 95.2139L59.0677 87.1736C59.7488 86.9237 59.8954 86.0255 59.3291 85.5719Z" fill="#69C5EB"/>
<path d="M66.6789 101.343C66.0326 100.629 65.0141 100.384 64.1141 100.728L52.0992 105.313C51.3614 105.594 51.0954 106.502 51.5645 107.137C52.0041 107.732 52.7876 107.96 53.4777 107.693L66.3558 102.705C66.9112 102.49 67.0785 101.785 66.6789 101.343Z" fill="#69C5EB"/>
<path d="M223.008 93.2495C241.28 101.797 260.914 107.058 281.011 108.792C278.296 115.105 259.001 146.703 201.725 172.739C200.176 172.977 164.41 156.338 144.782 144.928C145.449 145.881 205.75 123.692 223.008 93.2495Z" fill="url(#paint1_linear_203_505)"/>
<path d="M221.595 108.96C222.436 108.377 223.5 108.219 224.474 108.534L256.442 118.877C257.587 119.247 257.995 120.658 257.225 121.582C256.604 122.327 255.589 122.611 254.672 122.297L221.888 111.068C220.963 110.752 220.791 109.517 221.595 108.96Z" fill="#69C5EB"/>
<path d="M212.644 117.473C213.455 116.712 214.619 116.458 215.673 116.813L237.804 124.261C238.78 124.59 239.124 125.794 238.47 126.589C237.935 127.238 237.054 127.489 236.258 127.217L213.042 119.313C212.258 119.046 212.04 118.04 212.644 117.473Z" fill="#69C5EB"/>
<path d="M203.446 124.541C204.292 123.863 205.43 123.676 206.449 124.046L231.941 133.311C232.941 133.675 233.242 134.944 232.512 135.718C231.953 136.311 231.095 136.513 230.33 136.232L203.763 126.483C202.937 126.18 202.759 125.091 203.446 124.541Z" fill="#69C5EB"/>
<path d="M182.748 138.68C183.532 137.814 184.767 137.518 185.858 137.934L200.427 143.494C201.321 143.835 201.644 144.936 201.075 145.706C200.542 146.428 199.592 146.704 198.755 146.38L183.14 140.332C182.466 140.071 182.264 139.216 182.748 138.68Z" fill="#69C5EB"/>
<path d="M192.258 131.13C193.12 130.589 194.184 130.477 195.14 130.826L228.708 143.1C229.781 143.492 230.041 144.891 229.181 145.642C228.612 146.139 227.817 146.286 227.108 146.025L192.48 133.269C191.546 132.925 191.415 131.659 192.258 131.13Z" fill="#69C5EB"/>
<path d="M73.95 89.0189C73.2388 88.5728 72.3613 88.4805 71.5728 88.7688L43.8892 98.8908C43.0043 99.2143 42.79 100.368 43.4995 100.988C43.9688 101.398 44.6245 101.519 45.2092 101.303L73.7664 90.7833C74.5366 90.4996 74.6452 89.4551 73.95 89.0189Z" fill="#69C5EB"/>
<path d="M235.266 27.2971C235.266 30.6641 232.537 33.3936 229.17 33.3936C225.803 33.3936 223.073 30.6641 223.073 27.2971C223.073 23.9302 225.803 21.2007 229.17 21.2007C232.537 21.2007 235.266 23.9302 235.266 27.2971Z" fill="#69C5EB"/>
<circle cx="59.3406" cy="204.965" r="6.09644" fill="#69C5EB"/>
<circle cx="206.526" cy="214.545" r="6.09644" fill="#69C5EB"/>
<path d="M75.5978 32.2306C76.1127 30.0976 79.1466 30.0976 79.6615 32.2306L81.3944 39.4094C81.5784 40.1716 82.1735 40.7668 82.9358 40.9508L90.1146 42.6837C92.2475 43.1986 92.2476 46.2325 90.1146 46.7474L82.9358 48.4803C82.1735 48.6643 81.5784 49.2595 81.3944 50.0217L79.6615 57.2005C79.1466 59.3335 76.1127 59.3335 75.5978 57.2005L73.8648 50.0217C73.6808 49.2595 73.0857 48.6643 72.3235 48.4803L65.1447 46.7474C63.0117 46.2325 63.0117 43.1986 65.1447 42.6837L72.3235 40.9508C73.0857 40.7668 73.6808 40.1716 73.8648 39.4094L75.5978 32.2306Z" fill="#69C5EB"/>
<path d="M250.108 183.716C250.623 181.583 253.657 181.583 254.172 183.716L255.905 190.895C256.089 191.657 256.684 192.252 257.446 192.436L264.625 194.169C266.758 194.684 266.758 197.718 264.625 198.233L257.446 199.966C256.684 200.15 256.089 200.745 255.905 201.507L254.172 208.686C253.657 210.819 250.623 210.819 250.108 208.686L248.375 201.507C248.191 200.745 247.596 200.15 246.834 199.966L239.655 198.233C237.522 197.718 237.522 194.684 239.655 194.169L246.834 192.436C247.596 192.252 248.191 191.657 248.375 190.895L250.108 183.716Z" fill="#69C5EB"/>
<path d="M27.4715 166.913C28.7955 166.701 29.8525 168.002 29.3741 169.255L26.1451 177.71C25.6667 178.962 24.0117 179.228 23.1661 178.187L17.4581 171.163C16.6125 170.122 17.2105 168.556 18.5345 168.344L27.4715 166.913Z" fill="#69C5EB"/>
<path d="M253.566 80.7207C253.235 79.4214 254.435 78.2508 255.726 78.6135L264.439 81.0621C265.73 81.4249 266.144 83.049 265.184 83.9855L258.707 90.3072C257.747 91.2438 256.134 90.7903 255.803 89.491L253.566 80.7207Z" fill="#69C5EB"/>
<defs>
<filter id="filter0_f_203_505" x="5.3437" y="144" width="264.76" height="86.2213" filterUnits="userSpaceOnUse" color-interpolation-filters="sRGB">
<feFlood flood-opacity="0" result="BackgroundImageFix"/>
<feBlend mode="normal" in="SourceGraphic" in2="BackgroundImageFix" result="shape"/>
<feGaussianBlur stdDeviation="10.8865" result="effect1_foregroundBlur_203_505"/>
</filter>
<filter id="filter1_d_203_505" x="34.9548" y="12.4917" width="203.549" height="140.993" filterUnits="userSpaceOnUse" color-interpolation-filters="sRGB">
<feFlood flood-opacity="0" result="BackgroundImageFix"/>
<feColorMatrix in="SourceAlpha" type="matrix" values="0 0 0 0 0 0 0 0 0 0 0 0 0 0 0 0 0 0 127 0" result="hardAlpha"/>
<feOffset dy="3.48368"/>
<feGaussianBlur stdDeviation="1.74184"/>
<feComposite in2="hardAlpha" operator="out"/>
<feColorMatrix type="matrix" values="0 0 0 0 0 0 0 0 0 0 0 0 0 0 0 0 0 0 0.25 0"/>
<feBlend mode="normal" in2="BackgroundImageFix" result="effect1_dropShadow_203_505"/>
<feBlend mode="normal" in="SourceGraphic" in2="effect1_dropShadow_203_505" result="shape"/>
</filter>
<linearGradient id="paint0_linear_203_505" x1="13.1816" y1="86.0845" x2="86.7743" y2="71.7143" gradientUnits="userSpaceOnUse">
<stop stop-color="#E0F6FF"/>
<stop offset="1" stop-color="white"/>
</linearGradient>
<linearGradient id="paint1_linear_203_505" x1="266.227" y1="128.627" x2="176.991" y2="111.202" gradientUnits="userSpaceOnUse">
<stop stop-color="#E0F6FF"/>
<stop offset="1" stop-color="white"/>
</linearGradient>
</defs>
</svg>
